<svg xmlns="http://www.w3.org/2000/svg" xmlns:xlink="http://www.w3.org/1999/xlink" x="0px" y="0px"
     viewBox="0 0 512 512" style="enable-background:new 0 0 512 512; fill: white;" xml:space="preserve">
<path d="M363.3,256c0-11.4-9.3-20.7-20.7-20.7h-322C9.3,235.3,0,244.6,0,256c0,11.4,9.3,20.7,20.7,20.7h322
	C354.1,276.7,363.3,267.4,363.3,256z"/>

		<path d="M491.3,78.4H20.7C9.3,78.4,0,87.7,0,99.1s9.3,20.7,20.7,20.7h470.6c11.4,0,20.7-9.3,20.7-20.7S502.7,78.4,491.3,78.4z"/>

		<path d="M491.3,392.2H20.7C9.3,392.2,0,401.5,0,412.9s9.3,20.7,20.7,20.7h470.6c11.4,0,20.7-9.3,20.7-20.7
			S502.7,392.2,491.3,392.2z"/>
</svg>
