<svg viewBox="0 0 750 471" xmlns="http://www.w3.org/2000/svg"><g transform="translate(0 -.72)"><path d="m40 .72h670a40 40 0 0 1 40 40v391a40 40 0 0 1 -40 40h-670a40 40 0 0 1 -40-40v-391a40 40 0 0 1 40-40z" fill="#f4ffe1"/><g fill="#83ba3b"><path d="m630.59 194.86c-7.3-4.9-18.1-7.4-32.4-7.4h-37.5l-13.9 75.6h-49.1l3.2-17.2h29.5l3.5-19.3h-29.6l3.2-17.1h30.51l4-22.1h-61.9l-13.2 71.7h-22.7l13.3-71.7h-32.3l-13.2 71.7h-22.1l13.3-71.7h-32.3l-14 75.6h-49.4l3.1-17.2h29.7l3.5-19.2h-29.7l3.1-17.2h30.9l4-22.2h-192.71l-11 60.2-21.8-59.9h-33.59l-18 97.8h32l10.9-61.6 21.2 61.6h114.8l14-75.6h18l-14 75.6h302.1l8.8-47.7 14.2 47.7h32.1l-14.7-39 3.3-.7c7.4-1.6 13.2-5 17.2-10.1s6.1-11.8 6.1-19.7c-.11-9.3-3.51-16.1-10.41-20.9zm-404.5 68.2h-49l3.2-17.2h30.8l3.5-19.3h-30.5l2.9-17h49zm378-33c-3.2 2.3-7.9 3.3-14.3 3.3h-6.4l4.9-26.2h4.71c5.3 0 9.2.9 11.8 2.6 2.1 1.4 4.5 4 4.5 9.1.19 6.3-2.71 9.6-5.21 11.2z"/><path d="m655.39 279-.8-15.4 6.8-.4a8 8 0 0 1 3.1.3 3.1 3.1 0 0 1 1.8 1.4 4.89 4.89 0 0 1 .8 2.3 3.66 3.66 0 0 1 -.9 2.8 4.94 4.94 0 0 1 -3.2 1.6 5.39 5.39 0 0 1 1.3.7 8.6 8.6 0 0 1 1.8 2l2.9 4-2.5.1-2.2-3.1a13.71 13.71 0 0 0 -1.6-2 5.24 5.24 0 0 0 -1.1-1 3 3 0 0 0 -1-.4 4.82 4.82 0 0 0 -1.2 0l-2.4.1.4 6.8zm1.6-8.7 4.4-.2a5.7 5.7 0 0 0 2.2-.4 1.82 1.82 0 0 0 1.1-1 2.23 2.23 0 0 0 .3-1.4 2.62 2.62 0 0 0 -.9-1.8 3.61 3.61 0 0 0 -2.5-.6l-4.9.2z"/><path d="m659.89 256.56a14.37 14.37 0 1 0 15.1 13.6 14.34 14.34 0 0 0 -15.1-13.6zm-11.2 14.9a11.93 11.93 0 1 1 23.8-1.8v1.1a12 12 0 0 1 -12 11.9 11.7 11.7 0 0 1 -11.8-11.2z"/></g></g></svg>