<svg viewBox="0 0 750 471" xmlns="http://www.w3.org/2000/svg"><rect fill="#0e4595" height="471" rx="40" width="750"/><g fill="#fff"><path d="m278.2 334.23 33.36-195.76h53.36l-33.39 195.76z"/><path d="m524.31 142.69a137.75 137.75 0 0 0 -47.83-8.22c-52.72 0-89.86 26.55-90.18 64.6-.29 28.13 26.52 43.82 46.76 53.18 20.77 9.6 27.75 15.72 27.65 24.29-.13 13.12-16.58 19.11-31.92 19.11-21.36 0-32.7-3-50.23-10.27l-6.87-3.11-7.49 43.82c12.46 5.46 35.51 10.2 59.44 10.44 56.08 0 92.5-26.24 92.91-66.88.2-22.27-14-39.21-44.8-53.19-18.65-9.05-30.07-15.09-29.95-24.26 0-8.14 9.67-16.84 30.56-16.84a98.35 98.35 0 0 1 39.93 7.5l4.78 2.26z"/><path d="m661.61 138.47h-41.23c-12.77 0-22.33 3.48-27.94 16.23l-79.24 179.4h56s9.16-24.12 11.23-29.42c6.13 0 60.56.09 68.34.09 1.59 6.85 6.49 29.33 6.49 29.33h49.54zm-65.41 126.4c4.41-11.28 21.26-54.72 21.26-54.72-.32.52 4.38-11.33 7.07-18.68l3.61 16.87s10.22 46.73 12.35 56.53z"/><path d="m45.88 138.46-.68 4.08a223.47 223.47 0 0 1 56.42 21.68l47.38 169.7 56.46-.07 84-195.39h-56.56l-52.24 133.54-5.56-27.13c-.26-.83-.54-1.66-.83-2.49l-18.16-87.38c-3.23-12.39-12.6-16.09-24.19-16.53z"/></g></svg>