<svg viewBox="0 0 750 471" xmlns="http://www.w3.org/2000/svg"><path d="m40 0h670a40 40 0 0 1 40 40v391a40 40 0 0 1 -40 40h-670a40 40 0 0 1 -40-40v-391a40 40 0 0 1 40-40z" fill="#515151"/><path d="m434 235.5c0 99.1-80.4 179.5-179.5 179.5s-179.5-80.4-179.5-179.5 80.4-179.5 179.5-179.5 179.5 80.4 179.5 179.5" fill="#d9222a"/><path d="m495.5 56a178.77 178.77 0 0 0 -120.5 46.5 180.63 180.63 0 0 0 -18.1 19h36.3a183.12 183.12 0 0 1 13.7 19h-63.6a165.53 165.53 0 0 0 -10.3 19h84.3a183.48 183.48 0 0 1 7.6 19h-99.5a171.6 171.6 0 0 0 -5.2 19h109.8a182.79 182.79 0 0 1 4 38 179.21 179.21 0 0 1 -9.3 57h-99.5a175 175 0 0 0 7.6 19h84.3a182.54 182.54 0 0 1 -10.3 19h-63.6a183.12 183.12 0 0 0 13.7 19h36.3a180.63 180.63 0 0 1 -18.1 19 178.77 178.77 0 0 0 120.5 46.5c99.1 0 179.5-80.4 179.5-179.5s-80.5-179.5-179.6-179.5" fill="#ee9f2d"/><path d="m651.1 335.6a5.8 5.8 0 1 1 5.8 5.8 5.8 5.8 0 0 1 -5.8-5.8zm5.8 4.4a4.4 4.4 0 1 0 -4.4-4.4 4.37 4.37 0 0 0 4.4 4.4zm-.8-1.9h-1.2v-5.1h2.1a1.94 1.94 0 0 1 1.3.3 1.61 1.61 0 0 1 .6 1.3 1.29 1.29 0 0 1 -.9 1.3l.9 2.2h-1.3l-.8-2h-.9v2zm0-2.9h.7a1.7 1.7 0 0 0 .7-.1.71.71 0 0 0 .3-.6.55.55 0 0 0 -.3-.5 2 2 0 0 0 -.8-.1h-.6z"/><path d="m212.6 255.2a38.84 38.84 0 0 0 -4.3-.3c-11 0-16.6 3.8-16.6 11.3 0 4.6 2.7 7.5 7 7.5 7.8 0 13.5-7.6 13.9-18.5zm14.2 33h-16.1l.4-7.7c-4.9 6.1-11.5 8.9-20.4 8.9-10.6 0-17.8-8.2-17.8-20.2 0-18 12.6-28.5 34.2-28.5a60.28 60.28 0 0 1 7.9.6 18.65 18.65 0 0 0 .8-4.8c0-4.9-3.4-6.7-12.5-6.7a66.8 66.8 0 0 0 -20.6 3.3c.2-1.2 2.7-16.7 2.7-16.7 9.7-2.8 16.1-3.9 23.3-3.9 16.7 0 25.6 7.5 25.6 21.7a97.79 97.79 0 0 1 -1.6 14.7c-1.8 10.7-5.4 33.6-5.9 39.3z"/><path d="m164.6 288.2h-19.5l11.2-70-25 70h-13.2l-1.7-69.6-11.7 69.6h-18.2l15.2-91.1h28l1.7 51 17.1-51h31.2z"/><path d="m519.6 255.2a38.84 38.84 0 0 0 -4.3-.3c-11 0-16.6 3.8-16.6 11.3 0 4.6 2.7 7.5 7 7.5 7.8 0 13.5-7.6 13.9-18.5zm14.2 33h-16.1l.4-7.7c-4.9 6.1-11.5 8.9-20.4 8.9-10.6 0-17.8-8.2-17.8-20.2 0-18 12.6-28.5 34.2-28.5a60.28 60.28 0 0 1 7.9.6 18.65 18.65 0 0 0 .8-4.8c0-4.9-3.4-6.7-12.5-6.7a66.8 66.8 0 0 0 -20.6 3.3c.2-1.2 2.7-16.7 2.7-16.7 9.7-2.8 16.1-3.9 23.3-3.9 16.7 0 25.6 7.5 25.6 21.7a97.79 97.79 0 0 1 -1.6 14.7c-1.8 10.7-5.5 33.6-5.9 39.3z"/><path d="m313.4 287a43.81 43.81 0 0 1 -14 2.4c-10 0-15.4-5.7-15.4-16.3-.1-3.3 1.4-11.9 2.7-19.7 1.1-6.9 8.4-50.5 8.4-50.5h19.4l-2.3 11.2h11.7l-2.6 17.8h-11.7c-2.2 14.1-5.5 31.6-5.5 33.9 0 3.8 2 5.5 6.7 5.5a15.82 15.82 0 0 0 5.3-.7z"/><path d="m372.8 286.4a68.12 68.12 0 0 1 -19.9 3c-21.7 0-33-11.3-33-33 0-25.3 14.4-43.9 33.9-43.9 16 0 26.2 10.4 26.2 26.8a79.18 79.18 0 0 1 -2.4 18.2h-38.6c-1.3 10.7 5.6 15.2 16.8 15.2a44.77 44.77 0 0 0 20.1-4.7zm-10.9-43.9c.1-1.5 2.1-13.2-9-13.2-6.2 0-10.6 4.7-12.4 13.2z"/><path d="m238.4 237.5c0 9.4 4.5 15.8 14.8 20.7 7.9 3.7 9.1 4.8 9.1 8.2 0 4.6-3.5 6.7-11.2 6.7a55.74 55.74 0 0 1 -17.5-2.9s-2.6 16.3-2.7 17.1c4.4 1 8.4 1.9 20.3 2.2 20.6 0 30.1-7.8 30.1-24.8 0-10.2-4-16.1-13.7-20.6-8.2-3.8-9.1-4.6-9.1-8 0-4 3.2-6 9.5-6a108.49 108.49 0 0 1 14 1.1l2.8-17.2a131.15 131.15 0 0 0 -17.1-1.4c-21.8-.2-29.3 11.2-29.3 24.9"/><path d="m467.5 214.4c5.4 0 10.5 1.4 17.4 4.9l3.2-19.8c-2.9-1.1-12.9-7.7-21.4-7.7-13 0-24.1 6.5-31.8 17.1-11.3-3.7-16 3.8-21.7 11.4l-5.1 1.2a37 37 0 0 0 .6-7.4h-17.9c-2.4 22.9-6.8 46.1-10.2 69.1l-.9 5h19.5c3.3-21.1 5-34.7 6.1-43.8l7.3-4.1c1.1-4.1 4.5-5.5 11.4-5.3a82.59 82.59 0 0 0 -1.4 15.2c0 24.2 13.1 39.3 34.1 39.3 5.4 0 10-.7 17.2-2.7l3.4-20.8c-6.5 3.2-11.8 4.7-16.6 4.7-11.3 0-18.2-8.4-18.2-22.2.3-20 10.5-34.1 25-34.1"/><path d="m170.2 282.7h-19.5l11.2-69.9-24.9 69.9h-13.3l-1.7-69.5-11.7 69.5h-18.2l15.2-91h28l.8 56.4 18.9-56.4h30.3z" fill="#fff"/><path d="m632.5 197.1-4.3 26.3c-5.3-7-11.1-12.1-18.6-12.1-9.8 0-18.8 7.5-24.6 18.4a155.73 155.73 0 0 1 -16.6-4.6v.1c.7-6.1.9-9.9.9-11.1h-17.9c-2.4 22.9-6.8 46.1-10.2 69.1l-.9 5h19.5c2.6-17.1 4.7-31.3 6.1-42.5 6.7-6 10-11.3 16.7-10.9a63 63 0 0 0 -4.7 24c0 18.5 9.4 30.7 23.5 30.7 7.1 0 12.6-2.5 18-8.2l-.9 6.9h18.4l14.8-91h-19.2zm-24.3 73.9c-6.6 0-10-4.9-10-14.6 0-14.6 6.3-24.9 15.1-24.9 6.7 0 10.3 5.1 10.3 14.5 0 14.8-6.4 25-15.4 25z"/><g fill="#fff"><path d="m218.2 249.8a38.84 38.84 0 0 0 -4.3-.3c-11 0-16.6 3.8-16.6 11.3 0 4.6 2.7 7.5 7 7.5 7.8 0 13.6-7.6 13.9-18.5zm14.2 32.9h-16.1l.4-7.7c-4.9 6.1-11.5 9-20.4 9-10.6 0-17.8-8.2-17.8-20.2 0-18 12.6-28.5 34.2-28.5a60.28 60.28 0 0 1 7.9.6 18.65 18.65 0 0 0 .8-4.8c0-4.9-3.4-6.7-12.5-6.7a66.8 66.8 0 0 0 -20.6 3.3c.2-1.2 2.7-16.6 2.7-16.6 9.7-2.9 16.1-3.9 23.3-3.9 16.7 0 25.6 7.5 25.6 21.7a97.79 97.79 0 0 1 -1.6 14.7c-1.8 10.6-5.4 33.6-5.9 39.1z"/><path d="m493.7 194.2-3.2 19.8c-7-3.5-12-4.9-17.4-4.9-14.6 0-24.8 14.1-24.8 34.1 0 13.8 6.9 22.2 18.2 22.2 4.8 0 10.1-1.5 16.6-4.7l-3.4 20.8c-7.2 2-11.8 2.7-17.2 2.7-21 0-34-15.1-34-39.3 0-32.6 18.1-55.3 43.9-55.3 8.4-.2 18.5 3.4 21.3 4.6"/><path d="m525.2 249.8a38.84 38.84 0 0 0 -4.3-.3c-11 0-16.6 3.8-16.6 11.3 0 4.6 2.7 7.5 7 7.5 7.8 0 13.6-7.6 13.9-18.5zm14.2 32.9h-16.1l.4-7.7c-4.9 6.1-11.5 9-20.4 9-10.6 0-17.8-8.2-17.8-20.2 0-18 12.6-28.5 34.2-28.5a60.28 60.28 0 0 1 7.9.6 18.65 18.65 0 0 0 .8-4.8c0-4.9-3.4-6.7-12.5-6.7a66.8 66.8 0 0 0 -20.6 3.3c.2-1.2 2.7-16.6 2.7-16.6 9.7-2.9 16.1-3.9 23.3-3.9 16.7 0 25.6 7.5 25.6 21.7a97.79 97.79 0 0 1 -1.6 14.7c-1.8 10.6-5.4 33.6-5.9 39.1z"/><path d="m319 281.6a43.81 43.81 0 0 1 -14 2.4c-10 0-15.4-5.7-15.4-16.3-.1-3.3 1.4-11.9 2.7-19.7 1.1-6.9 8.4-50.5 8.4-50.5h19.4l-2.3 11.2h9.9l-2.6 17.8h-10c-2.2 14.1-5.5 31.6-5.5 33.9 0 3.8 2 5.5 6.7 5.5a15.82 15.82 0 0 0 5.3-.7z"/><path d="m378.4 281a67.63 67.63 0 0 1 -19.9 3c-21.7 0-33-11.3-33-33 0-25.3 14.4-43.9 33.9-43.9 16 0 26.2 10.4 26.2 26.8a79.18 79.18 0 0 1 -2.4 18.2h-38.6c-1.3 10.7 5.6 15.2 16.8 15.2a44.77 44.77 0 0 0 20.1-4.7zm-10.9-43.9c.1-1.5 2.1-13.2-9-13.2-6.2 0-10.6 4.7-12.4 13.2z"/><path d="m244.1 232.1c0 9.4 4.5 15.8 14.8 20.7 7.9 3.7 9.1 4.8 9.1 8.2 0 4.6-3.5 6.7-11.2 6.7a55.74 55.74 0 0 1 -17.5-2.9s-2.6 16.3-2.7 17.1c4.4 1 8.4 1.9 20.3 2.2 20.6 0 30.1-7.8 30.1-24.7 0-10.2-4-16.1-13.7-20.6-8.2-3.8-9.1-4.6-9.1-8 0-4 3.2-6.1 9.5-6.1a108.49 108.49 0 0 1 14 1.1l2.8-17.2a131.15 131.15 0 0 0 -17.1-1.4c-21.9-.2-29.4 11.2-29.3 24.9"/><path d="m642.5 282.7h-18.4l.9-6.9c-5.3 5.7-10.8 8.2-18 8.2-14.2 0-23.5-12.2-23.5-30.7 0-24.6 14.5-45.4 31.7-45.4 7.6 0 13.3 3.1 18.6 10.1l4.3-26.3h19.2zm-28.7-17.1c9.1 0 15.5-10.3 15.5-25 0-9.4-3.6-14.5-10.3-14.5-8.8 0-15.1 10.3-15.1 24.9-.1 9.7 3.2 14.6 9.9 14.6z"/><path d="m556.9 208.7c-2.4 22.9-6.8 46.1-10.2 69.1l-.9 5h19.5c7-45.3 8.7-54.1 19.6-53a71.91 71.91 0 0 1 7.4-21.5c-8.2-1.7-12.7 2.9-18.7 11.7.5-3.8 1.3-7.5 1.2-11.2h-17.9"/><path d="m396.5 208.7c-2.4 22.9-6.8 46.1-10.2 69.1l-.9 5h19.5c7-45.3 8.6-54.1 19.6-53 1.8-9.3 5-17.4 7.4-21.5-8.2-1.7-12.7 2.9-18.7 11.7.5-3.8 1.3-7.5 1.2-11.2h-17.9"/><path d="m651.1 276.9a5.8 5.8 0 1 1 5.8 5.8 5.8 5.8 0 0 1 -5.8-5.8zm5.8 4.5a4.4 4.4 0 1 0 -4.4-4.4 4.37 4.37 0 0 0 4.4 4.4zm-.8-1.9h-1.2v-5.1h2.2a2.08 2.08 0 0 1 1.3.3 1.71 1.71 0 0 1 .7 1.3 1.29 1.29 0 0 1 -.9 1.3l.9 2.2h-1.3l-.8-2h-.9zm0-2.9h.7a1.7 1.7 0 0 0 .7-.1.71.71 0 0 0 .3-.6.55.55 0 0 0 -.3-.5 2 2 0 0 0 -.8-.1h-.6z"/></g></svg>