<?xml version="1.0" encoding="utf-8"?>
<!-- Generator: Adobe Illustrator 22.1.0, SVG Export Plug-In . SVG Version: 6.00 Build 0)  -->
<svg version="1.1" id="Capa_1" xmlns="http://www.w3.org/2000/svg" xmlns:xlink="http://www.w3.org/1999/xlink" x="0px" y="0px"
	 viewBox="0 0 512.1 512.1" style="enable-background:new 0 0 512.1 512.1;" xml:space="preserve">
<style type="text/css">
	.st0{fill:#FD9500;}
</style>
<path class="st0" d="M416.1,0H40.6C24.2-0.1,9.3,9.8,3.2,25c-6.4,15.1-3,32.6,8.8,44.1l430.9,430.9c7.5,7.6,17.7,11.9,28.4,11.9
	c5.4,0,10.8-1.1,15.8-3.2c15.2-6.1,25.1-20.9,25-37.4V96C512.1,43,469.1,0,416.1,0z"/>
<path class="st0" d="M471.3,512c-10.7,0-20.9-4.3-28.4-12l0,0L12,69.2C0.2,57.7-3.2,40.2,3.2,25C9.3,9.8,24.2-0.1,40.6,0h375.5
	c53,0,96,43,96,96v375.5c0.2,16.4-9.8,31.3-25,37.4C482.1,511,476.7,512,471.3,512z"/>
</svg>
